<svg width="200" height="65" viewBox="0 0 200 65" fill="none" xmlns="http://www.w3.org/2000/svg">
<g clip-path="url(#clip0)">
<path d="M103.933 29.9271C103.933 33.6633 102.774 36.5198 100.447 38.4967C98.1205 40.4736 94.814 41.4667 90.5373 41.4667H87.3909V53.8008H80.062V19.1064H91.0931C95.285 19.1064 98.4691 20.0144 100.655 21.8211C102.84 23.6371 103.933 26.3328 103.933 29.9271ZM87.3909 35.4321H89.8025C92.0539 35.4321 93.7401 34.9875 94.8611 34.089C95.9821 33.1998 96.5379 31.8945 96.5379 30.1825C96.5379 28.461 96.0669 27.1841 95.1343 26.3612C94.1923 25.5383 92.7322 25.1316 90.7257 25.1316H87.3909V35.4321Z" fill="white"/>
<path d="M124.629 26.7679C125.609 26.7679 126.419 26.8436 127.059 26.9855L126.513 33.7768C125.929 33.616 125.222 33.5404 124.384 33.5404C122.086 33.5404 120.296 34.1363 119.005 35.3186C117.724 36.5009 117.083 38.1656 117.083 40.3033V53.8008H109.877V27.2693H116.396V31.7337H116.754C117.573 30.2487 118.675 29.0475 120.07 28.1395C121.473 27.222 122.99 26.7679 124.629 26.7679Z" fill="white"/>
<path d="M155.876 40.0101C155.876 44.3327 154.745 47.7095 152.475 50.1403C150.205 52.5807 147.049 53.7914 142.998 53.7914C140.464 53.7914 138.222 53.2333 136.291 52.1172C134.351 51.0011 132.862 49.4026 131.826 47.3122C130.79 45.2218 130.262 42.7909 130.262 40.0006C130.262 35.6686 131.393 32.2918 133.644 29.8893C135.895 27.4868 139.061 26.2856 143.149 26.2856C145.683 26.2856 147.925 26.8436 149.856 27.9503C151.787 29.0569 153.285 30.646 154.321 32.7175C155.358 34.7984 155.876 37.2292 155.876 40.0101ZM137.61 40.0101C137.61 42.6396 138.043 44.6259 138.901 45.9691C139.758 47.3122 141.161 47.9838 143.092 47.9838C145.014 47.9838 146.399 47.3122 147.237 45.9785C148.076 44.6448 148.5 42.6491 148.5 40.0101C148.5 37.3806 148.076 35.4132 147.228 34.0984C146.38 32.7837 144.986 32.131 143.045 32.131C141.124 32.131 139.739 32.7837 138.882 34.089C138.034 35.3943 137.61 37.3711 137.61 40.0101Z" fill="white"/>
<path d="M176.336 53.8008C173.237 53.8008 170.797 52.6658 169.036 50.4052V64.9999H161.829V26.7963H168.612L168.706 30.2393H169.036C170.722 27.6098 173.218 26.3045 176.525 26.3045C179.643 26.3045 182.083 27.5152 183.854 29.9366C185.625 32.358 186.501 35.7159 186.501 40.0196C186.501 42.8477 186.086 45.3069 185.257 47.3973C184.428 49.4877 183.251 51.0767 181.725 52.1645C180.198 53.2522 178.399 53.8008 176.336 53.8008ZM174.217 32.0837C172.436 32.0837 171.136 32.6323 170.317 33.7295C169.497 34.8267 169.073 36.6428 169.045 39.1777V39.9628C169.045 42.8099 169.469 44.8529 170.307 46.0826C171.146 47.3122 172.483 47.9365 174.311 47.9365C177.542 47.9365 179.153 45.2597 179.153 39.9155C179.153 37.3049 178.757 35.347 177.956 34.0417C177.165 32.7364 175.912 32.0837 174.217 32.0837Z" fill="white"/>
<path d="M192.153 20.4117C192.153 18.0565 193.462 16.8742 196.072 16.8742C198.681 16.8742 199.99 18.0565 199.99 20.4117C199.99 21.5373 199.661 22.4075 199.011 23.0318C198.361 23.6561 197.372 23.9682 196.072 23.9682C193.462 23.9682 192.153 22.7859 192.153 20.4117ZM199.67 53.8009H192.464V27.2693H199.67V53.8009Z" fill="white"/>
<path d="M56.8789 37.3524C56.86 37.2956 56.8506 37.2483 56.8318 37.1916C56.8223 37.1632 56.8035 37.1348 56.7941 37.1064C56.5774 36.6051 56.2194 36.2173 55.7767 36.0092L33.074 20.6767C33.074 20.6767 31.5856 19.5417 30.653 19.5417C29.7205 19.5417 28.2321 20.6767 28.2321 20.6767L5.39753 36.1417C5.35984 36.1606 5.33158 36.1984 5.30332 36.2268C5.28448 36.2362 5.26564 36.2552 5.25622 36.2741C5.17144 36.3497 5.08666 36.4254 5.0113 36.5105C5.00188 36.5295 4.98304 36.5389 4.97362 36.5578C4.89826 36.643 4.83231 36.7376 4.77579 36.8416C4.76637 36.8605 4.74753 36.8889 4.73811 36.9173C4.69101 37.0119 4.64391 37.1064 4.60623 37.201C4.58739 37.2483 4.57797 37.2956 4.55913 37.3429C4.53087 37.428 4.50261 37.5226 4.48377 37.6172C4.47435 37.674 4.46493 37.7402 4.45551 37.7969C4.44609 37.8821 4.43667 37.9672 4.43667 38.0523C4.43667 38.0807 4.42725 38.1091 4.42725 38.128V51.6161C4.42725 52.8741 5.2939 53.8861 6.36781 53.8861H55.0608C56.1347 53.8861 57.0013 52.8646 57.0013 51.6161V38.459C57.039 38.0807 56.9919 37.7023 56.8789 37.3524ZM44.8775 45.78H16.5604C15.4018 45.78 14.4597 44.8342 14.4597 43.6708V42.1858C14.4597 41.4858 14.8083 40.8332 15.3829 40.4359L29.4849 30.8826C30.1915 30.4002 31.1241 30.4002 31.8306 30.8826L46.0456 40.4832C46.6297 40.871 46.9688 41.5331 46.9688 42.233V43.6708C46.9688 44.8342 46.0362 45.78 44.8775 45.78Z" fill="white"/>
<path d="M60.3163 17.6026L33.4687 1.13504C33.4687 1.13504 31.726 0 30.6332 0C29.5405 0 27.7978 1.13504 27.7978 1.13504L1.12921 18.5012C0.0458905 19.1254 -0.321497 20.5159 0.300236 21.6036L2.74006 25.8411C3.3618 26.9288 4.74656 27.2977 5.82989 26.6735L30.6803 10.3762L55.6156 25.7749C56.6989 26.3992 58.0837 26.0303 58.7054 24.9425L61.1452 20.705C61.767 19.6267 61.3996 18.2363 60.3163 17.6026Z" fill="white"/>
</g>
<defs>
<clipPath id="clip0">
<rect width="200" height="65" fill="white"/>
</clipPath>
</defs>
</svg>
